<?xml version="1.0" encoding="utf-8"?>
<!-- Generator: Adobe Illustrator 18.0.0, SVG Export Plug-In . SVG Version: 6.00 Build 0)  -->
<!DOCTYPE svg PUBLIC "-//W3C//DTD SVG 1.1//EN" "http://www.w3.org/Graphics/SVG/1.1/DTD/svg11.dtd">
<svg version="1.1" id="Layer_1" xmlns="http://www.w3.org/2000/svg" xmlns:xlink="http://www.w3.org/1999/xlink" x="0px" y="0px"
	 viewBox="0 0 585.7 816.1" enable-background="new 0 0 585.7 816.1" xml:space="preserve">
<pattern  x="-132.9" y="-167.8" width="28.8" height="28.8" patternUnits="userSpaceOnUse" id="Unnamed_Pattern_2" viewBox="2.9 -31.7 28.8 28.8" overflow="visible">
	<g>
		<polygon fill="none" points="2.9,-31.7 31.7,-31.7 31.7,-2.9 2.9,-2.9 		"/>
		<g>
			<defs>
				<rect id="SVGID_1_" x="2.9" y="-31.7" width="28.8" height="28.8"/>
			</defs>
			<clipPath id="SVGID_2_">
				<use xlink:href="#SVGID_1_"  overflow="visible"/>
			</clipPath>
			<path clip-path="url(#SVGID_2_)" fill="#FAF399" d="M31.7,0c1.6,0,2.9-1.3,2.9-2.9c0-1.6-1.3-2.9-2.9-2.9c-1.6,0-2.9,1.3-2.9,2.9
				C28.8-1.3,30.1,0,31.7,0"/>
			<path clip-path="url(#SVGID_2_)" fill="#FAF399" d="M17.3,0c1.6,0,2.9-1.3,2.9-2.9c0-1.6-1.3-2.9-2.9-2.9c-1.6,0-2.9,1.3-2.9,2.9
				C14.4-1.3,15.7,0,17.3,0"/>
			<path clip-path="url(#SVGID_2_)" fill="#FAF399" d="M31.7-14.4c1.6,0,2.9-1.3,2.9-2.9s-1.3-2.9-2.9-2.9c-1.6,0-2.9,1.3-2.9,2.9
				S30.1-14.4,31.7-14.4"/>
			<path clip-path="url(#SVGID_2_)" fill="#FAF399" d="M17.3-14.4c1.6,0,2.9-1.3,2.9-2.9s-1.3-2.9-2.9-2.9c-1.6,0-2.9,1.3-2.9,2.9
				S15.7-14.4,17.3-14.4"/>
			<path clip-path="url(#SVGID_2_)" fill="#FAF399" d="M10.1-7.2c1.6,0,2.9-1.3,2.9-2.9c0-1.6-1.3-2.9-2.9-2.9
				c-1.6,0-2.9,1.3-2.9,2.9C7.2-8.5,8.5-7.2,10.1-7.2"/>
			<path clip-path="url(#SVGID_2_)" fill="#FAF399" d="M24.5-7.2c1.6,0,2.9-1.3,2.9-2.9c0-1.6-1.3-2.9-2.9-2.9
				c-1.6,0-2.9,1.3-2.9,2.9C21.6-8.5,22.9-7.2,24.5-7.2"/>
			<path clip-path="url(#SVGID_2_)" fill="#FAF399" d="M10.1-21.6c1.6,0,2.9-1.3,2.9-2.9c0-1.6-1.3-2.9-2.9-2.9
				c-1.6,0-2.9,1.3-2.9,2.9C7.2-22.9,8.5-21.6,10.1-21.6"/>
			<path clip-path="url(#SVGID_2_)" fill="#FAF399" d="M24.5-21.6c1.6,0,2.9-1.3,2.9-2.9c0-1.6-1.3-2.9-2.9-2.9
				c-1.6,0-2.9,1.3-2.9,2.9C21.6-22.9,22.9-21.6,24.5-21.6"/>
			<path clip-path="url(#SVGID_2_)" fill="#FAF399" d="M2.9,0c1.6,0,2.9-1.3,2.9-2.9c0-1.6-1.3-2.9-2.9-2.9S0-4.5,0-2.9
				C0-1.3,1.3,0,2.9,0"/>
			<path clip-path="url(#SVGID_2_)" fill="#FAF399" d="M2.9-14.4c1.6,0,2.9-1.3,2.9-2.9s-1.3-2.9-2.9-2.9S0-18.9,0-17.3
				S1.3-14.4,2.9-14.4"/>
			<path clip-path="url(#SVGID_2_)" fill="#FAF399" d="M31.7-28.8c1.6,0,2.9-1.3,2.9-2.9c0-1.6-1.3-2.9-2.9-2.9
				c-1.6,0-2.9,1.3-2.9,2.9C28.8-30.1,30.1-28.8,31.7-28.8"/>
			<path clip-path="url(#SVGID_2_)" fill="#FAF399" d="M17.3-28.8c1.6,0,2.9-1.3,2.9-2.9c0-1.6-1.3-2.9-2.9-2.9
				c-1.6,0-2.9,1.3-2.9,2.9C14.4-30.1,15.7-28.8,17.3-28.8"/>
			<path clip-path="url(#SVGID_2_)" fill="#FAF399" d="M2.9-28.8c1.6,0,2.9-1.3,2.9-2.9c0-1.6-1.3-2.9-2.9-2.9S0-33.3,0-31.7
				C0-30.1,1.3-28.8,2.9-28.8"/>
		</g>
	</g>
</pattern>
<g>
	<defs>
		<rect id="SVGID_3_" x="0" y="0" width="585.7" height="816.1"/>
	</defs>
	<clipPath id="SVGID_4_">
		<use xlink:href="#SVGID_3_"  overflow="visible"/>
	</clipPath>
	<pattern  id="SVGID_5_" xlink:href="#Unnamed_Pattern_2" patternTransform="matrix(1.0679 0 0 1.0679 64.767 -4470.9131)">
	</pattern>
	<path clip-path="url(#SVGID_4_)" fill="url(#SVGID_5_)" d="M402,485.1c30.4,66.8,0.6,148.6-68.1,179.9
		c-67.8,30.9-149.1-0.3-179.5-67.2c-15.6-34.3-15-73-1.2-106.5L17.5,553.1c1.2,32.4,8.6,65.2,22.9,96.6
		c58.7,129,212.2,186.4,344,126.4c132.7-60.5,190.2-213.9,131.4-342.9c-14.3-31.5-34.2-58.6-57.9-80.7l-135.7,61.8
		C356.7,425.8,386.3,450.7,402,485.1"/>
	<path clip-path="url(#SVGID_4_)" fill="#FAF399" d="M252.5,52.8c64-45.8,152.2-50.5,224.4-5.4c72.7,45.5,107.3,126.8,94.2,204.5
		L473,190.5c-6.7-25-22.4-47.9-46.2-62.8c-23.5-14.7-50.8-18.7-76.1-13.7L252.5,52.8z"/>
</g>
<g>
	<defs>
		<path id="SVGID_6_" d="M368.2,15.9c-41.3,0-81.8,12.7-115.6,36.9l98.1,61.3c25.3-5,52.6-1,76.1,13.7
			c23.8,14.9,39.5,37.8,46.2,62.8l98.2,61.4c13.1-77.6-21.4-159-94.2-204.5C442.8,26.1,405.2,15.9,368.2,15.9L368.2,15.9z"/>
	</defs>
	<clipPath id="SVGID_7_">
		<use xlink:href="#SVGID_6_"  overflow="visible"/>
	</clipPath>
	<g clip-path="url(#SVGID_7_)">
		<defs>
			
				<rect id="SVGID_8_" x="-214.8" y="-1245.6" transform="matrix(-0.4169 0.9089 -0.9089 -0.4169 1028.3118 -650.5928)" width="1875.3" height="2500.3"/>
		</defs>
		<clipPath id="SVGID_9_">
			<use xlink:href="#SVGID_8_"  overflow="visible"/>
		</clipPath>
		<g transform="matrix(1 0 -2.980232e-008 1 0 -3.051758e-005)" clip-path="url(#SVGID_9_)">
			
				<image overflow="visible" width="3150" height="4200" xlink:href="C3430892.png"  transform="matrix(0.2482 -0.5411 0.5411 0.2482 -804.4086 335.5836)">
			</image>
		</g>
	</g>
</g>
</svg>
