<?xml version="1.0" encoding="utf-8"?>
<!-- Generator: Adobe Illustrator 18.0.0, SVG Export Plug-In . SVG Version: 6.00 Build 0)  -->
<!DOCTYPE svg PUBLIC "-//W3C//DTD SVG 1.1//EN" "http://www.w3.org/Graphics/SVG/1.1/DTD/svg11.dtd">
<svg version="1.1" id="Layer_1" xmlns="http://www.w3.org/2000/svg" xmlns:xlink="http://www.w3.org/1999/xlink" x="0px" y="0px"
	 viewBox="0 0 242 163" enable-background="new 0 0 242 163" xml:space="preserve">
<path fill="#F8FBEE" d="M126.9,42.6c0,14.8-12,26.9-26.9,26.9c-14.8,0-26.9-12-26.9-26.9c0-14.8,12-26.9,26.9-26.9
	C114.9,15.7,126.9,27.7,126.9,42.6"/>
<path fill="#F8FBEE" d="M179.5,30.9c0,14.8-12,26.9-26.9,26.9s-26.9-12-26.9-26.9c0-14.8,12-26.9,26.9-26.9S179.5,16,179.5,30.9"/>
<path fill="#F8FBEE" d="M193.6,111.4c0,7.8-6.3,14.2-14.2,14.2c-7.8,0-14.2-6.3-14.2-14.2c0-7.8,6.3-14.2,14.2-14.2
	C187.3,97.2,193.6,103.5,193.6,111.4"/>
<path fill="#F8FBEE" d="M132,130.7c0,7.8-6.3,14.2-14.2,14.2s-14.2-6.3-14.2-14.2c0-7.8,6.3-14.2,14.2-14.2S132,122.8,132,130.7"/>
<path fill="#F8FBEE" d="M92,71c20.1,20.1,20.1,52.8,0,72.9c-20.1,20.1-52.8,20.1-72.9,0C-1,123.8-1,91.1,19.1,71
	C39.2,50.8,71.9,50.8,92,71"/>
<path fill="#F8FBEE" d="M238.8,67.5c0,19.7-15.9,35.6-35.6,35.6c-19.7,0-35.6-15.9-35.6-35.6c0-19.7,15.9-35.6,35.6-35.6
	C222.9,31.9,238.8,47.8,238.8,67.5"/>
<path fill="#F8FBEE" d="M138,121.4c18.4,0,33-14.6,33-32.5c0-4.4-0.9-8.6-2.5-12.4h-18.8c3.4,3.1,5.5,7.6,5.5,12.4
	c0,9.3-7.7,17.1-17.2,17.1c-9.4,0-17.1-7.8-17.1-17.1c0-4.8,2.1-9.2,5.5-12.4h-18.8c-1.6,3.8-2.5,8-2.5,12.4
	C105.2,106.8,119.8,121.4,138,121.4"/>
<g opacity="0.5">
	<g>
		<defs>
			<rect id="SVGID_3_" x="107.7" y="56.6" width="60.9" height="20"/>
		</defs>
		<clipPath id="SVGID_1_">
			<use xlink:href="#SVGID_3_"  overflow="visible"/>
		</clipPath>
		<path clip-path="url(#SVGID_1_)" fill="#F8FBEE" d="M138,56.6c-13.8,0-25.5,8.2-30.4,20h18.8c3-2.8,7.1-4.6,11.6-4.6
			c4.5,0,8.6,1.8,11.7,4.6h18.8C163.7,64.8,151.9,56.6,138,56.6"/>
	</g>
</g>
</svg>
