<?xml version="1.0" encoding="utf-8"?>
<!-- Generator: Adobe Illustrator 18.0.0, SVG Export Plug-In . SVG Version: 6.00 Build 0)  -->
<!DOCTYPE svg PUBLIC "-//W3C//DTD SVG 1.1//EN" "http://www.w3.org/Graphics/SVG/1.1/DTD/svg11.dtd">
<svg version="1.1" id="Layer_1" xmlns="http://www.w3.org/2000/svg" xmlns:xlink="http://www.w3.org/1999/xlink" x="0px" y="0px"
	 viewBox="0 0 242 163" enable-background="new 0 0 242 163" xml:space="preserve">
<path fill="#F8FBEE" d="M62.2,30.9c-21.9,0-39.7,17.8-39.7,39.7c0,21.9,17.8,39.7,39.7,39.7c21.9,0,39.7-17.8,39.7-39.7
	C101.9,48.7,84.2,30.9,62.2,30.9 M62.2,91.1c-11.3,0-20.5-9.2-20.5-20.5c0-11.3,9.2-20.5,20.5-20.5c11.3,0,20.5,9.2,20.5,20.5
	C82.7,81.9,73.6,91.1,62.2,91.1"/>
<path fill="#F8FBEE" d="M62.2,120.6c-16.3,0-30.3,9.9-36.4,23.9h23.3c3.6-3,8.1-4.7,13.1-4.7c5,0,9.6,1.8,13.1,4.7h23.3
	C92.6,130.5,78.6,120.6,62.2,120.6"/>
<g opacity="0.5">
	<g>
		<defs>
			<rect id="SVGID_3_" x="120.4" y="17" width="105.1" height="91.9"/>
		</defs>
		<clipPath id="SVGID_1_">
			<use xlink:href="#SVGID_3_"  overflow="visible"/>
		</clipPath>
		<polygon clip-path="url(#SVGID_1_)" fill="#F8FBEE" points="225.5,42 158.6,108.9 120.4,70.8 120.4,45.8 158.6,83.9 225.5,17 		
			"/>
	</g>
</g>
</svg>
