<?xml version="1.0" encoding="utf-8"?>
<!-- Generator: Adobe Illustrator 18.0.0, SVG Export Plug-In . SVG Version: 6.00 Build 0)  -->
<!DOCTYPE svg PUBLIC "-//W3C//DTD SVG 1.1//EN" "http://www.w3.org/Graphics/SVG/1.1/DTD/svg11.dtd">
<svg version="1.1" id="Layer_1" xmlns="http://www.w3.org/2000/svg" xmlns:xlink="http://www.w3.org/1999/xlink" x="0px" y="0px"
	 viewBox="0 0 242 163" enable-background="new 0 0 242 163" xml:space="preserve">
<path fill="#F8FBEE" d="M125,56.4c-13.8,0-25,11.2-25,25c0,13.8,11.2,25,25,25c13.8,0,25-11.2,25-25C150,67.6,138.8,56.4,125,56.4
	 M125,94.4c-7.1,0-12.9-5.8-12.9-12.9c0-7.1,5.8-12.9,12.9-12.9c7.1,0,12.9,5.8,12.9,12.9C137.9,88.6,132.1,94.4,125,94.4"/>
<g opacity="0.5">
	<g>
		<defs>
			<rect id="SVGID_25_" x="102" y="121.9" width="46" height="15.1"/>
		</defs>
		<clipPath id="SVGID_1_">
			<use xlink:href="#SVGID_25_"  overflow="visible"/>
		</clipPath>
		<path clip-path="url(#SVGID_1_)" fill="#F8FBEE" d="M125,137c10.3,0,19.1-6.2,23-15.1h-14.7c-2.2,1.9-5.1,3-8.3,3
			c-3.1,0-6-1.1-8.3-3H102C105.8,130.8,114.7,137,125,137"/>
	</g>
</g>
<g opacity="0.5">
	<g>
		<defs>
			<rect id="SVGID_27_" x="102" y="147.6" width="46" height="15.1"/>
		</defs>
		<clipPath id="SVGID_2_">
			<use xlink:href="#SVGID_27_"  overflow="visible"/>
		</clipPath>
		<path clip-path="url(#SVGID_2_)" fill="#F8FBEE" d="M125,162.7c10.3,0,19.1-6.2,23-15.1h-14.7c-2.2,1.9-5.1,3-8.3,3
			c-3.1,0-6-1.1-8.3-3H102C105.8,156.4,114.7,162.7,125,162.7"/>
	</g>
</g>
<g opacity="0.5">
	<g>
		<defs>
			<rect id="SVGID_29_" x="155.5" y="111.9" width="34.3" height="34.3"/>
		</defs>
		<clipPath id="SVGID_3_">
			<use xlink:href="#SVGID_29_"  overflow="visible"/>
		</clipPath>
		<path clip-path="url(#SVGID_3_)" fill="#F8FBEE" d="M182.5,138.8c7.3-7.3,9.1-17.9,5.6-26.9l-10.4,10.4c-0.3,2.9-1.5,5.7-3.7,8
			c-2.2,2.2-5.1,3.5-8,3.7l-10.4,10.4C164.5,148,175.2,146.1,182.5,138.8"/>
	</g>
</g>
<g opacity="0.5">
	<g>
		<defs>
			<rect id="SVGID_31_" x="191.2" y="58.3" width="15.1" height="46"/>
		</defs>
		<clipPath id="SVGID_4_">
			<use xlink:href="#SVGID_31_"  overflow="visible"/>
		</clipPath>
		<path clip-path="url(#SVGID_4_)" fill="#F8FBEE" d="M206.3,81.3c0-10.3-6.2-19.1-15.1-23v14.7c1.9,2.2,3,5.1,3,8.3
			c0,3.1-1.1,6-3,8.3v14.7C200.1,100.5,206.3,91.6,206.3,81.3"/>
	</g>
</g>
<g opacity="0.5">
	<g>
		<defs>
			<rect id="SVGID_33_" x="60.1" y="16.5" width="34.3" height="34.3"/>
		</defs>
		<clipPath id="SVGID_5_">
			<use xlink:href="#SVGID_33_"  overflow="visible"/>
		</clipPath>
		<path clip-path="url(#SVGID_5_)" fill="#F8FBEE" d="M67.4,23.8c-7.3,7.3-9.1,17.9-5.6,26.9l10.4-10.4c0.3-2.9,1.5-5.7,3.7-8
			c2.2-2.2,5.1-3.5,8-3.7l10.4-10.4C85.4,14.7,74.7,16.5,67.4,23.8"/>
	</g>
</g>
<g opacity="0.5">
	<g>
		<defs>
			<rect id="SVGID_35_" x="43.6" y="58.3" width="15.1" height="46"/>
		</defs>
		<clipPath id="SVGID_6_">
			<use xlink:href="#SVGID_35_"  overflow="visible"/>
		</clipPath>
		<path clip-path="url(#SVGID_6_)" fill="#F8FBEE" d="M43.6,81.3c0,10.3,6.2,19.1,15.1,23V89.6c-1.9-2.2-3-5.1-3-8.3
			c0-3.1,1.1-6,3-8.3V58.3C49.8,62.2,43.6,71,43.6,81.3"/>
	</g>
</g>
<g opacity="0.5">
	<g>
		<defs>
			<rect id="SVGID_37_" x="60.1" y="111.9" width="34.3" height="34.3"/>
		</defs>
		<clipPath id="SVGID_7_">
			<use xlink:href="#SVGID_37_"  overflow="visible"/>
		</clipPath>
		<path clip-path="url(#SVGID_7_)" fill="#F8FBEE" d="M67.4,138.8c7.3,7.3,17.9,9.1,26.9,5.6L84,134c-2.9-0.3-5.7-1.5-8-3.7
			c-2.2-2.2-3.5-5.1-3.7-8l-10.4-10.4C58.3,120.9,60.2,131.6,67.4,138.8"/>
	</g>
</g>
<g opacity="0.5">
	<g>
		<defs>
			<rect id="SVGID_39_" x="148.6" y="81.7" width="27.9" height="40"/>
		</defs>
		<clipPath id="SVGID_8_">
			<use xlink:href="#SVGID_39_"  overflow="visible"/>
		</clipPath>
		<path clip-path="url(#SVGID_8_)" fill="#F8FBEE" d="M173.2,109.2c5.1-8.9,4.2-19.7-1.6-27.5l-7.4,12.7c0.5,2.9,0,5.9-1.5,8.7
			c-1.6,2.7-4,4.7-6.7,5.7l-7.4,12.7C158.2,122.6,168,118.1,173.2,109.2"/>
	</g>
</g>
<g opacity="0.5">
	<g>
		<defs>
			<rect id="SVGID_41_" x="148.6" y="41" width="27.9" height="40"/>
		</defs>
		<clipPath id="SVGID_9_">
			<use xlink:href="#SVGID_41_"  overflow="visible"/>
		</clipPath>
		<path clip-path="url(#SVGID_9_)" fill="#F8FBEE" d="M173.2,53.5c-5.1-8.9-15-13.5-24.6-12.4l7.4,12.7c2.7,1,5.2,2.9,6.7,5.7
			c1.6,2.7,2,5.8,1.5,8.7l7.4,12.7C177.4,73.2,178.3,62.4,173.2,53.5"/>
	</g>
</g>
<g opacity="0.5">
	<g>
		<defs>
			<rect id="SVGID_43_" x="102" y="25.6" width="46" height="15.1"/>
		</defs>
		<clipPath id="SVGID_10_">
			<use xlink:href="#SVGID_43_"  overflow="visible"/>
		</clipPath>
		<path clip-path="url(#SVGID_10_)" fill="#F8FBEE" d="M125,25.6c-10.3,0-19.1,6.2-23,15.1h14.7c2.2-1.9,5.1-3,8.3-3
			c3.1,0,6,1.1,8.3,3h14.7C144.1,31.9,135.3,25.6,125,25.6"/>
	</g>
</g>
<g opacity="0.5">
	<g>
		<defs>
			<rect id="SVGID_45_" x="73.4" width="116.4" height="80.9"/>
		</defs>
		<clipPath id="SVGID_11_">
			<use xlink:href="#SVGID_45_"  overflow="visible"/>
		</clipPath>
		<path clip-path="url(#SVGID_11_)" fill="#F8FBEE" d="M188,50.8l-10.4-10.4c-0.3-2.9-1.5-5.7-3.7-8c-2.2-2.2-5.1-3.5-8-3.7
			l-10.4-10.4c9-3.6,19.7-1.7,26.9,5.6C189.7,31.1,191.6,41.8,188,50.8 M125,0c-10.3,0-19.1,6.2-23,15.1h14.7c2.2-1.9,5.1-3,8.3-3
			c3.1,0,6,1.1,8.3,3h14.7C144.1,6.2,135.3,0,125,0 M76.7,53.5c-5.1,8.9-4.2,19.7,1.6,27.5l7.4-12.7c-0.5-2.9,0-5.9,1.5-8.7
			c1.6-2.7,4-4.7,6.7-5.7l7.4-12.7C91.7,40,81.9,44.6,76.7,53.5"/>
	</g>
</g>
<g opacity="0.5">
	<g>
		<defs>
			<rect id="SVGID_47_" x="73.4" y="81.7" width="27.9" height="40"/>
		</defs>
		<clipPath id="SVGID_12_">
			<use xlink:href="#SVGID_47_"  overflow="visible"/>
		</clipPath>
		<path clip-path="url(#SVGID_12_)" fill="#F8FBEE" d="M76.7,109.2c5.1,8.9,15,13.5,24.6,12.4l-7.4-12.7c-2.7-1-5.2-2.9-6.7-5.7
			c-1.6-2.7-2-5.8-1.5-8.7l-7.4-12.7C72.5,89.5,71.6,100.3,76.7,109.2"/>
	</g>
</g>
</svg>
