<?xml version="1.0" encoding="utf-8"?>
<!-- Generator: Adobe Illustrator 18.0.0, SVG Export Plug-In . SVG Version: 6.00 Build 0)  -->
<!DOCTYPE svg PUBLIC "-//W3C//DTD SVG 1.1//EN" "http://www.w3.org/Graphics/SVG/1.1/DTD/svg11.dtd">
<svg version="1.1" id="Layer_1" xmlns="http://www.w3.org/2000/svg" xmlns:xlink="http://www.w3.org/1999/xlink" x="0px" y="0px"
	 viewBox="0 0 167.1 168.6" enable-background="new 0 0 167.1 168.6" xml:space="preserve">
<path fill="#0C6363" d="M84.6,165.2c36,0,66.6-21.4,79.3-52.1h-49.1c-8,7.4-18.6,12-30.2,12c-11.8,0-22.5-4.6-30.5-12H4.9
	C17.7,143.8,48.3,165.2,84.6,165.2"/>
<path fill="#0C6363" d="M137.4,46.8c13-2.4,22.8-12.4,25.6-24.6l-18.6,3.5c-2.4,2.9-5.8,5-9.8,5.7c-4,0.7-7.9,0-11.2-1.8l-18.6,3.5
	C111.6,43.5,124.3,49.3,137.4,46.8"/>
<path fill="#0C6363" d="M67.8,23.2C62.8,11.4,51,3.1,37,3.1c-13.9,0-25.7,8.3-30.6,20.1C4.9,27,4,31.2,4,35.7
	c0,18,14.7,32.7,33.1,32.7c18.5,0,33.2-14.7,33.2-32.7C70.2,31.2,69.4,27,67.8,23.2 M37,52.9c-9.4,0-17.2-7.9-17.2-17.2
	c0-4.8,2.1-9.3,5.5-12.4c3.1-2.8,7.2-4.6,11.6-4.6c4.5,0,8.7,1.8,11.8,4.6c3.4,3.2,5.6,7.6,5.6,12.4C54.4,45,46.6,52.9,37,52.9"/>
</svg>
