<?xml version="1.0" encoding="utf-8"?>
<!-- Generator: Adobe Illustrator 18.0.0, SVG Export Plug-In . SVG Version: 6.00 Build 0)  -->
<!DOCTYPE svg PUBLIC "-//W3C//DTD SVG 1.1//EN" "http://www.w3.org/Graphics/SVG/1.1/DTD/svg11.dtd">
<svg version="1.1" id="Layer_1" xmlns="http://www.w3.org/2000/svg" xmlns:xlink="http://www.w3.org/1999/xlink" x="0px" y="0px"
	 viewBox="0 0 203.1 204.6" enable-background="new 0 0 203.1 204.6" xml:space="preserve">
<path fill="#5F8C42" d="M145,130.7c-6.6-15.7-22.1-26.8-40.3-26.8c-18.1,0-33.7,11-40.3,26.8c-2.2,5.2-3.4,10.9-3.4,16.9
	c0,24.1,19.5,43.6,43.6,43.6c24.1,0,43.6-19.5,43.6-43.6C148.4,141.6,147.2,135.9,145,130.7 M104.8,170.3
	c-12.5,0-22.7-10.2-22.7-22.7c0-6.7,2.9-12.7,7.5-16.9c4-3.6,9.3-5.8,15.2-5.8c5.8,0,11.2,2.2,15.2,5.8c4.6,4.2,7.5,10.2,7.5,16.9
	C127.5,160.1,117.3,170.3,104.8,170.3"/>
<path fill="#5F8C42" d="M69.8,39.2c-12.4,0-23.1,7.5-27.7,18.2h17.7c2.7-2.3,6.2-3.6,10-3.6c3.8,0,7.3,1.4,10,3.6h17.7
	C92.9,46.7,82.2,39.2,69.8,39.2"/>
<path fill="#5F8C42" d="M124.6,13.4c-15.3,0-27.7,12.4-27.7,27.7v58.3h14.5V41.1c0-7.3,5.9-13.2,13.2-13.2c5.9,0,10.9,3.9,12.6,9.3
	H152C150.1,23.7,138.5,13.4,124.6,13.4"/>
</svg>
