<?xml version="1.0" encoding="utf-8"?>
<!-- Generator: Adobe Illustrator 18.0.0, SVG Export Plug-In . SVG Version: 6.00 Build 0)  -->
<!DOCTYPE svg PUBLIC "-//W3C//DTD SVG 1.1//EN" "http://www.w3.org/Graphics/SVG/1.1/DTD/svg11.dtd">
<svg version="1.1" id="Layer_1" xmlns="http://www.w3.org/2000/svg" xmlns:xlink="http://www.w3.org/1999/xlink" x="0px" y="0px"
	 viewBox="0 0 203.1 204.6" enable-background="new 0 0 203.1 204.6" xml:space="preserve">
<path fill="#5D75AB" d="M99.5,125.6c-11.8,0-22,7.1-26.4,17.3H90c2.6-2.1,5.9-3.4,9.5-3.4c3.6,0,6.9,1.3,9.5,3.4h16.9
	C121.5,132.7,111.3,125.6,99.5,125.6"/>
<path fill="#5D75AB" d="M26.2,122.4c11.5,0,21.4-7,25.7-16.9H35.4c-2.5,2.1-5.7,3.4-9.3,3.4c-3.5,0-6.7-1.3-9.3-3.4H0.4
	C4.7,115.4,14.6,122.4,26.2,122.4"/>
<path fill="#5D75AB" d="M30.9,99.7H20.4c0-44.5,36.2-80.7,80.7-80.7c21.5,0,41.8,8.4,57,23.6l-7.4,7.4
	c-13.3-13.3-30.9-20.6-49.6-20.6C62.4,29.6,30.9,61,30.9,99.7"/>
<path fill="#5D75AB" d="M177,87c-11.5,0-21.4,7-25.7,16.9h16.5c2.5-2.1,5.7-3.4,9.3-3.4c3.5,0,6.7,1.3,9.3,3.4h16.5
	C198.4,93.9,188.5,87,177,87"/>
<path fill="#5D75AB" d="M104.4,190.2l-0.4-10.5c3.3-0.1,6.5-0.5,9.7-1.1l1.9,10.3C111.8,189.6,108.1,190,104.4,190.2 M93.2,189.9
	c-3.7-0.4-7.4-1-11.1-1.8l2.4-10.2c3.1,0.8,6.4,1.3,9.6,1.6L93.2,189.9z M126.3,186.2l-3.3-10c3.1-1,6.1-2.3,9-3.7l4.7,9.4
	C133.4,183.6,129.9,185,126.3,186.2 M71.4,184.7c-3.5-1.4-6.9-3-10.1-4.8l5.2-9.1c2.8,1.6,5.8,3,8.8,4.2L71.4,184.7z M146.4,176.3
	l-5.9-8.7c2.7-1.8,5.2-3.9,7.7-6l7,7.8C152.4,171.9,149.5,174.2,146.4,176.3 M52,173.7c-2.8-2.1-5.5-4.5-8-7l7.4-7.4
	c2.2,2.2,4.5,4.2,7,6.1L52,173.7z M162.9,161.3l-8-6.7c2.1-2.5,4-5.2,5.7-7.9l8.9,5.5C167.5,155.4,165.3,158.4,162.9,161.3
	 M174.7,142.3l-9.6-4.3c1.3-3,2.4-6.1,3.3-9.2l10.1,2.9C177.5,135.3,176.3,138.9,174.7,142.3 M180.9,120.8l-10.4-1.4
	c0.4-3.2,0.7-6.5,0.7-9.7h10.5C181.6,113.3,181.4,117.1,180.9,120.8"/>
<path fill="#5D75AB" d="M126.8,84.1L126.8,84.1c-4.3-10.3-14.5-17.4-26.7-17.4c-12.1,0-22.3,7.2-26.6,17.4c-1.4,3.3-2.1,7-2.1,10.8
	c0,15.6,12.8,28.4,28.7,28.4c16.1,0,28.8-12.8,28.8-28.4C129,91,128.2,87.4,126.8,84.1 M100.2,109.8c-8.2,0-14.9-6.8-14.9-14.9
	c0-4.2,1.9-8.1,4.8-10.8h0c2.7-2.5,6.2-4,10.1-4c3.9,0,7.5,1.5,10.2,4c3,2.7,4.8,6.6,4.8,10.8C115.2,102.9,108.5,109.8,100.2,109.8"
	/>
</svg>
