<?xml version="1.0" encoding="utf-8"?>
<!-- Generator: Adobe Illustrator 18.0.0, SVG Export Plug-In . SVG Version: 6.00 Build 0)  -->
<!DOCTYPE svg PUBLIC "-//W3C//DTD SVG 1.1//EN" "http://www.w3.org/Graphics/SVG/1.1/DTD/svg11.dtd">
<svg version="1.1" id="Layer_1" xmlns="http://www.w3.org/2000/svg" xmlns:xlink="http://www.w3.org/1999/xlink" x="0px" y="0px"
	 viewBox="0 0 29.6 20.1" enable-background="new 0 0 29.6 20.1" xml:space="preserve">
<g transform="translate(-1217.246 -731.238)">
	<g>
		<path fill="#F57957" d="M1232,751.4c8.1,0.1,14.7-6.4,14.8-14.5c0,0,0,0,0-0.1c0-1.9-0.4-3.8-1.1-5.6h-8.5
			c1.6,1.4,2.5,3.4,2.5,5.6c0,4.3-3.5,7.7-7.8,7.6c-4.2,0-7.6-3.4-7.6-7.6c0-2.1,0.9-4.1,2.5-5.6h-8.5c-0.7,1.8-1.1,3.6-1.1,5.6
			C1217.3,744.9,1223.9,751.4,1232,751.4C1232,751.4,1232,751.4,1232,751.4z"/>
	</g>
</g>
<image overflow="visible" width="1366" height="768" xlink:href="AF077454.jpg"  transform="matrix(1 0 0 1 -1408.0741 -599.0225)">
</image>
</svg>
