<?xml version="1.0" encoding="utf-8"?>
<!-- Generator: Adobe Illustrator 18.0.0, SVG Export Plug-In . SVG Version: 6.00 Build 0)  -->
<!DOCTYPE svg PUBLIC "-//W3C//DTD SVG 1.1//EN" "http://www.w3.org/Graphics/SVG/1.1/DTD/svg11.dtd">
<svg version="1.1" id="Layer_1" xmlns="http://www.w3.org/2000/svg" xmlns:xlink="http://www.w3.org/1999/xlink" x="0px" y="0px"
	 viewBox="0 0 100 100" enable-background="new 0 0 100 100" xml:space="preserve">
<path fill="#559141" d="M49.9,36.2c-8,0-14.5,6.5-14.5,14.5c0,8,6.5,14.5,14.5,14.5c8,0,14.5-6.5,14.5-14.5
	C64.4,42.7,57.9,36.2,49.9,36.2 M49.9,58.2c-4.1,0-7.5-3.4-7.5-7.5c0-4.1,3.4-7.5,7.5-7.5c4.1,0,7.5,3.4,7.5,7.5
	C57.3,54.9,54,58.2,49.9,58.2"/>
<path fill="#559141" d="M49.9,97.7c6,0,11.1-3.6,13.3-8.7h-8.5c-1.3,1.1-3,1.7-4.8,1.7c-1.8,0-3.5-0.7-4.8-1.7h-8.5
	C38.8,94.1,43.9,97.7,49.9,97.7"/>
<path fill="#559141" d="M96.9,50.6c0-6-3.6-11.1-8.7-13.3v8.5c1.1,1.3,1.7,3,1.7,4.8c0,1.8-0.7,3.5-1.7,4.8V64
	C93.3,61.7,96.9,56.6,96.9,50.6"/>
<path fill="#559141" d="M2.8,50.6c0,6,3.6,11.1,8.7,13.3v-8.5c-1.1-1.3-1.7-3-1.7-4.8c0-1.8,0.7-3.5,1.7-4.8v-8.5
	C6.4,39.6,2.8,44.7,2.8,50.6"/>
<path fill="#559141" d="M16.6,83.9c4.2,4.2,10.4,5.3,15.6,3.2l-6-6c-1.7-0.2-3.3-0.9-4.6-2.2c-1.3-1.3-2-2.9-2.2-4.6l-6-6
	C11.3,73.6,12.3,79.7,16.6,83.9"/>
<path fill="#559141" d="M77.8,34.5c-3-5.2-8.7-7.8-14.2-7.2l4.3,7.4c1.6,0.6,3,1.7,3.9,3.3c0.9,1.6,1.2,3.3,0.9,5l4.3,7.4
	C80.2,45.9,80.8,39.7,77.8,34.5"/>
<path fill="#559141" d="M86.4,32.9l-6-6c-0.2-1.7-0.9-3.3-2.2-4.6c-1.3-1.3-2.9-2-4.6-2.2l-6-6c5.2-2.1,11.4-1,15.6,3.2
	C87.4,21.6,88.4,27.7,86.4,32.9 M49.9,3.6c-6,0-11.1,3.6-13.3,8.7h8.5c1.3-1.1,3-1.7,4.8-1.7c1.8,0,3.5,0.7,4.8,1.7h8.5
	C60.9,7.2,55.8,3.6,49.9,3.6 M21.9,34.5c-3,5.2-2.4,11.4,0.9,15.9l4.3-7.4c-0.3-1.7,0-3.4,0.9-5c0.9-1.6,2.3-2.7,3.9-3.3l4.3-7.4
	C30.6,26.7,24.9,29.4,21.9,34.5"/>
<g opacity="0.5">
	<g>
		<defs>
			<rect id="SVGID_25_" x="36.5" y="74.1" width="26.6" height="8.7"/>
		</defs>
		<clipPath id="SVGID_1_">
			<use xlink:href="#SVGID_25_"  overflow="visible"/>
		</clipPath>
		<g clip-path="url(#SVGID_1_)">
			<defs>
				<rect id="SVGID_27_" x="36.5" y="74.1" width="26.6" height="8.7"/>
			</defs>
			<clipPath id="SVGID_2_">
				<use xlink:href="#SVGID_27_"  overflow="visible"/>
			</clipPath>
			<path clip-path="url(#SVGID_2_)" fill="#559141" d="M49.9,82.9c6,0,11.1-3.6,13.3-8.7h-8.5c-1.3,1.1-3,1.7-4.8,1.7
				c-1.8,0-3.5-0.7-4.8-1.7h-8.5C38.8,79.3,43.9,82.9,49.9,82.9"/>
		</g>
	</g>
</g>
<g opacity="0.5">
	<g>
		<defs>
			<rect id="SVGID_29_" x="67.6" y="68.4" width="19.8" height="19.8"/>
		</defs>
		<clipPath id="SVGID_3_">
			<use xlink:href="#SVGID_29_"  overflow="visible"/>
		</clipPath>
		<g clip-path="url(#SVGID_3_)">
			<defs>
				<rect id="SVGID_31_" x="67.6" y="68.4" width="19.8" height="19.8"/>
			</defs>
			<clipPath id="SVGID_4_">
				<use xlink:href="#SVGID_31_"  overflow="visible"/>
			</clipPath>
			<path clip-path="url(#SVGID_4_)" fill="#559141" d="M83.2,83.9c4.2-4.2,5.3-10.4,3.2-15.6l-6,6c-0.2,1.7-0.9,3.3-2.2,4.6
				c-1.3,1.3-2.9,2-4.6,2.2l-6,6C72.8,89.2,78.9,88.2,83.2,83.9"/>
		</g>
	</g>
</g>
<g opacity="0.5">
	<g>
		<defs>
			<rect id="SVGID_33_" x="12.3" y="13.1" width="19.8" height="19.8"/>
		</defs>
		<clipPath id="SVGID_5_">
			<use xlink:href="#SVGID_33_"  overflow="visible"/>
		</clipPath>
		<g clip-path="url(#SVGID_5_)">
			<defs>
				<rect id="SVGID_35_" x="12.3" y="13.1" width="19.8" height="19.8"/>
			</defs>
			<clipPath id="SVGID_6_">
				<use xlink:href="#SVGID_35_"  overflow="visible"/>
			</clipPath>
			<path clip-path="url(#SVGID_6_)" fill="#559141" d="M16.6,17.4c-4.2,4.2-5.3,10.4-3.2,15.6l6-6c0.2-1.7,0.9-3.3,2.2-4.6
				c1.3-1.3,2.9-2,4.6-2.2l6-6C26.9,12.1,20.8,13.1,16.6,17.4"/>
		</g>
	</g>
</g>
<g opacity="0.5">
	<g>
		<defs>
			<rect id="SVGID_37_" x="63.6" y="50.9" width="16.2" height="23.2"/>
		</defs>
		<clipPath id="SVGID_7_">
			<use xlink:href="#SVGID_37_"  overflow="visible"/>
		</clipPath>
		<g clip-path="url(#SVGID_7_)">
			<defs>
				<rect id="SVGID_39_" x="63.6" y="50.9" width="16.2" height="23.1"/>
			</defs>
			<clipPath id="SVGID_8_">
				<use xlink:href="#SVGID_39_"  overflow="visible"/>
			</clipPath>
			<path clip-path="url(#SVGID_8_)" fill="#559141" d="M77.8,66.8c3-5.2,2.4-11.4-0.9-15.9l-4.3,7.4c0.3,1.7,0,3.4-0.9,5
				c-0.9,1.6-2.3,2.7-3.9,3.3l-4.3,7.4C69.1,74.6,74.8,71.9,77.8,66.8"/>
		</g>
	</g>
</g>
<g opacity="0.5">
	<g>
		<defs>
			<rect id="SVGID_41_" x="36.5" y="18.4" width="26.6" height="8.7"/>
		</defs>
		<clipPath id="SVGID_9_">
			<use xlink:href="#SVGID_41_"  overflow="visible"/>
		</clipPath>
		<g clip-path="url(#SVGID_9_)">
			<defs>
				<rect id="SVGID_43_" x="36.5" y="18.4" width="26.6" height="8.7"/>
			</defs>
			<clipPath id="SVGID_10_">
				<use xlink:href="#SVGID_43_"  overflow="visible"/>
			</clipPath>
			<path clip-path="url(#SVGID_10_)" fill="#559141" d="M49.9,18.4c-6,0-11.1,3.6-13.3,8.7h8.5c1.3-1.1,3-1.7,4.8-1.7
				c1.8,0,3.5,0.7,4.8,1.7h8.5C60.9,22,55.8,18.4,49.9,18.4"/>
		</g>
	</g>
</g>
<g opacity="0.5">
	<g>
		<defs>
			<rect id="SVGID_45_" x="20" y="50.9" width="16.2" height="23.2"/>
		</defs>
		<clipPath id="SVGID_11_">
			<use xlink:href="#SVGID_45_"  overflow="visible"/>
		</clipPath>
		<g clip-path="url(#SVGID_11_)">
			<defs>
				<rect id="SVGID_47_" x="20" y="50.9" width="16.2" height="23.1"/>
			</defs>
			<clipPath id="SVGID_12_">
				<use xlink:href="#SVGID_47_"  overflow="visible"/>
			</clipPath>
			<path clip-path="url(#SVGID_12_)" fill="#559141" d="M21.9,66.8c3,5.2,8.7,7.8,14.2,7.2l-4.3-7.4c-1.6-0.6-3-1.7-3.9-3.3
				c-0.9-1.6-1.2-3.4-0.9-5l-4.3-7.4C19.5,55.4,19,61.6,21.9,66.8"/>
		</g>
	</g>
</g>
</svg>
