<?xml version="1.0" encoding="utf-8"?>
<!-- Generator: Adobe Illustrator 18.0.0, SVG Export Plug-In . SVG Version: 6.00 Build 0)  -->
<!DOCTYPE svg PUBLIC "-//W3C//DTD SVG 1.1//EN" "http://www.w3.org/Graphics/SVG/1.1/DTD/svg11.dtd">
<svg version="1.1" id="Layer_1" xmlns="http://www.w3.org/2000/svg" xmlns:xlink="http://www.w3.org/1999/xlink" x="0px" y="0px"
	 viewBox="0 0 203.1 204.6" enable-background="new 0 0 203.1 204.6" xml:space="preserve">
<path fill="#FFFFFF" d="M140.3,164.7c12.5,0,23.3-7.6,27.9-18.5c1.5-3.6,2.3-7.5,2.3-11.7c0-16.7-13.5-30.2-30.2-30.2
	s-30.2,13.5-30.2,30.2c0,4.1,0.8,8.1,2.3,11.7C117,157.1,127.8,164.7,140.3,164.7 M140.3,118.8c8.7,0,15.7,7,15.7,15.7
	c0,4.6-2,8.8-5.2,11.7c-2.8,2.5-6.5,4-10.5,4c-4,0-7.7-1.5-10.5-4c-3.2-2.9-5.2-7-5.2-11.7C124.6,125.9,131.6,118.8,140.3,118.8"/>
<rect x="132.8" y="45.8" transform="matrix(0.8438 0.5367 -0.5367 0.8438 62.2783 -64.1942)" fill="#FFFFFF" width="17.2" height="58.2"/>
<path fill="#FFFFFF" d="M73.2,104.3c-16.7,0-30.2,13.5-30.2,30.2c0,4.1,0.8,8.1,2.3,11.7c4.6,10.9,15.3,18.5,27.9,18.5
	s23.3-7.6,27.9-18.5c1.5-3.6,2.3-7.5,2.3-11.7C103.4,117.8,89.8,104.3,73.2,104.3 M73.2,150.2c-4,0-7.7-1.5-10.5-4
	c-3.2-2.9-5.2-7-5.2-11.7c0-8.7,7-15.7,15.7-15.7s15.7,7,15.7,15.7c0,4.6-2,8.8-5.2,11.7C80.9,148.7,77.2,150.2,73.2,150.2"/>
<rect x="65.7" y="45.8" transform="matrix(0.8438 0.5367 -0.5367 0.8438 51.7847 -28.1433)" fill="#FFFFFF" width="17.2" height="58.2"/>
</svg>
